<?xml version="1.0" encoding="UTF-8" standalone="no"?>
<!-- Created with Inkscape (http://www.inkscape.org/) -->

<svg xmlns="http://www.w3.org/2000/svg" xml:space="preserve" id="svg1" width="120" height="120" viewBox="0 0 31.75 31.75"><g id="layer1" transform="translate(-153.43 -157.786)"><g id="g1" transform="matrix(.30592 -.0696 .06602 .32249 113.495 166.773)"><path id="use9" d="m179.353 14.297-.099-.02v.003c-1.113-.242-8.441-1.677-11.262 2.009l-55.424 72.473c-1.939 2.533 2.777 3.24 2.777 3.24l14.906 3.217s2.794.564 5.184-2.536l37.498-48.636 14.103 59.77c.899 3.812 3.677 4.45 3.677 4.45l14.906 3.216s4.59 1.301 3.868-1.806l-20.605-88.88c-1.05-4.522-8.322-6.237-9.433-6.475v-.003z" style="baseline-shift:baseline;display:inline;overflow:visible;vector-effect:none;fill:currentColor;fill-opacity:1;fill-rule:evenodd;stroke-width:3.23549;stroke-linejoin:bevel;paint-order:stroke markers fill;stop-color:#000"/><g id="g3-5" transform="translate(.298 -1.068)"><path id="path80472-43-4-9" d="m149.516 80.388 10.19-6.046" style="fill:themeAccent;fill-opacity:1;stroke:themeAccent;stroke-width:5.0394;stroke-linecap:round;stroke-linejoin:miter;stroke-dasharray:none;stroke-opacity:1"/><path id="path80472-4-0-9-8" d="m153.983 59.23 6.595 5.648" style="fill:themeAccent;fill-opacity:1;stroke:themeAccent;stroke-width:5.48595;stroke-linecap:round;stroke-linejoin:miter;stroke-dasharray:none;stroke-opacity:1"/><path id="path80472-5-7-5-4" d="m171.533 65.197 7.545-9.865" style="fill:themeAccent;fill-opacity:1;stroke:themeAccent;stroke-width:5.28553;stroke-linecap:round;stroke-linejoin:miter;stroke-dasharray:none;stroke-opacity:1"/><path id="path80472-7-8-0-8" d="m172.893 75.626 10.397 10.395" style="fill:themeAccent;fill-opacity:1;stroke:themeAccent;stroke-width:5.28447;stroke-linecap:round;stroke-linejoin:miter;stroke-dasharray:none;stroke-opacity:1"/><circle id="path80471-6-4-1" cx="181.876" cy="50.769" r="5.772" style="fill:themeAccent;fill-opacity:1;fill-rule:evenodd;stroke:themeAccent;stroke-width:1.79663;stroke-linecap:round;stroke-linejoin:round;stroke-miterlimit:8.2;stroke-dasharray:none;stroke-opacity:1"/><circle id="path80471-9-8-8-0" cx="187.714" cy="90.836" r="6.695" style="fill:themeAccent;fill-opacity:1;fill-rule:evenodd;stroke:themeAccent;stroke-width:1.79663;stroke-linecap:round;stroke-linejoin:round;stroke-miterlimit:8.2;stroke-dasharray:none;stroke-opacity:1"/><circle id="path80471-0-4-1-3" cx="150.288" cy="55.706" r="6.155" style="fill:themeAccent;fill-opacity:1;fill-rule:evenodd;stroke:themeAccent;stroke-width:1.79663;stroke-linecap:round;stroke-linejoin:round;stroke-miterlimit:8.2;stroke-dasharray:none;stroke-opacity:1"/><circle id="path80471-0-9-3-7-0" cx="147.466" cy="81.52" r="5.38" style="fill:themeAccent;fill-opacity:1;fill-rule:evenodd;stroke:themeAccent;stroke-width:2.33715;stroke-linecap:round;stroke-linejoin:round;stroke-miterlimit:8.2;stroke-dasharray:none;stroke-opacity:1"/><g id="path80472-5-9-1-2-4" style="opacity:1" transform="translate(-.13 -2.888)"><path id="path3-4" d="M165.287 67.85c-2.046.85-3.07 2.88-3.316 4.782a1.175 1.175 0 0 0 1.014 1.317 1.175 1.175 0 0 0 1.316-1.016c.166-1.282.85-2.481 1.89-2.914a1.175 1.175 0 0 0 .633-1.537 1.175 1.175 0 0 0-1.537-.633m10.08 5.476a8.247 8.247 0 0 1-8.248 8.247 8.247 8.247 0 0 1-8.247-8.247 8.247 8.247 0 0 1 8.247-8.247 8.247 8.247 0 0 1 8.247 8.247" style="baseline-shift:baseline;display:inline;overflow:visible;fill:themeAccent;fill-opacity:1;stroke-width:3.30521;stroke-linecap:round;stroke-dasharray:none;stop-color:#000;stop-opacity:1"/></g></g></g></g></svg>
